<?xml version="1.0" standalone="no"?>
<!DOCTYPE svg PUBLIC "-//W3C//DTD SVG 20010904//EN"
 "http://www.w3.org/TR/2001/REC-SVG-20010904/DTD/svg10.dtd">
<svg version="1.0" xmlns="http://www.w3.org/2000/svg"
 width="256.000000pt" height="256.000000pt" viewBox="0 0 256.000000 256.000000"
 preserveAspectRatio="xMidYMid meet">

<g transform="translate(0.000000,256.000000) scale(0.100000,-0.100000)"
fill="#000000" stroke="none">
<path d="M0 1280 l0 -1280 1280 0 1280 0 0 1280 0 1280 -1280 0 -1280 0 0
-1280z m440 1185 c13 -14 21 -25 18 -25 -2 0 -15 11 -28 25 -13 14 -21 25 -18
25 2 0 15 -11 28 -25z m120 -45 c18 -12 2 -12 -25 0 -13 6 -15 9 -5 9 8 0 22
-4 30 -9z m129 -74 c32 -38 -65 -147 -175 -197 -137 -62 -190 -19 -94 78 57
57 106 90 171 113 65 23 83 24 98 6z m624 -283 l-603 -3 -3 -523 -2 -522 -3
528 -2 527 608 -2 607 -3 -602 -2z m-546 -755 c-1 -123 -2 -25 -2 217 0 242 1
342 2 223 2 -119 2 -317 0 -440z m210 510 c-3 -8 -6 -5 -6 6 -1 11 2 17 5 13
3 -3 4 -12 1 -19z m130 16 c-3 -3 -12 -4 -19 -1 -8 3 -5 6 6 6 11 1 17 -2 13
-5z m18 -24 c-3 -5 -12 -10 -18 -10 -7 0 -6 4 3 10 19 12 23 12 15 0z m-175
-24 c0 -2 -7 -6 -15 -10 -8 -3 -15 -1 -15 4 0 6 7 10 15 10 8 0 15 -2 15 -4z
m166 -4 c-5 -8 -66 -4 -66 4 0 2 16 4 36 4 19 0 33 -4 30 -8z m-139 -44 c-3
-8 -6 -5 -6 6 -1 11 2 17 5 13 3 -3 4 -12 1 -19z m830 -340 c-1 -68 -3 -15 -3
117 0 132 2 187 3 123 2 -64 2 -172 0 -240z m-970 5 c-1 -65 -3 -14 -3 112 0
127 2 180 3 118 2 -62 2 -165 0 -230z m321 287 c-7 -10 -14 -18 -15 -16 -6 6
9 36 18 36 5 0 4 -9 -3 -20z m-28 -88 c0 -4 -11 -9 -26 -10 -14 -1 -23 2 -19
8 7 12 45 14 45 2z m-153 -44 c-3 -8 -6 -5 -6 6 -1 11 2 17 5 13 3 -3 4 -12 1
-19z m133 12 c0 -5 -7 -7 -15 -4 -8 4 -15 8 -15 10 0 2 7 4 15 4 8 0 15 -4 15
-10z m-7 -77 c-7 -2 -19 -2 -25 0 -7 3 -2 5 12 5 14 0 19 -2 13 -5z m54 1 c-3
-3 -12 -4 -19 -1 -8 3 -5 6 6 6 11 1 17 -2 13 -5z m-47 -18 c0 -2 -7 -7 -16
-10 -8 -3 -12 -2 -9 4 6 10 25 14 25 6z m295 -6 c3 -5 1 -10 -4 -10 -6 0 -11
5 -11 10 0 6 2 10 4 10 3 0 8 -4 11 -10z m210 0 c3 -5 1 -10 -4 -10 -6 0 -11
5 -11 10 0 6 2 10 4 10 3 0 8 -4 11 -10z m-1414 -115 l31 -40 -37 40 c-20 22
-50 58 -67 80 l-30 40 36 -40 c20 -22 51 -58 67 -80z m776 63 c-3 -7 -5 -2 -5
12 0 14 2 19 5 13 2 -7 2 -19 0 -25z m116 25 c-7 -2 -21 -2 -30 0 -10 3 -4 5
12 5 17 0 24 -2 18 -5z m57 -23 c0 -5 -5 -10 -11 -10 -5 0 -7 5 -4 10 3 6 8
10 11 10 2 0 4 -4 4 -10z m-203 -26 c-3 -3 -12 -4 -19 -1 -8 3 -5 6 6 6 11 1
17 -2 13 -5z m53 -1 c-8 -3 -18 -11 -22 -17 -5 -7 -8 -4 -8 7 0 11 7 17 23 16
15 0 17 -2 7 -6z m-53 -69 c-3 -3 -12 -4 -19 -1 -8 3 -5 6 6 6 11 1 17 -2 13
-5z m323 -2 c0 -4 -9 -8 -20 -9 -11 -1 -20 2 -20 8 0 5 9 9 20 9 11 0 20 -4
20 -8z m-1016 -28 c9 -24 2 -26 -12 -4 -7 11 -8 20 -3 20 5 0 12 -7 15 -16z
m1862 -31 l-99 -4 29 -31 29 -30 -79 4 c-52 4 -73 2 -62 -4 20 -11 339 -5 374
7 20 7 22 4 22 -35 0 -39 -1 -41 -28 -39 -15 2 -32 0 -39 -4 -6 -4 -19 -4 -29
0 -13 5 -15 3 -9 -8 7 -11 5 -11 -10 1 -11 9 -16 10 -11 3 5 -9 1 -13 -13 -13
-11 0 -22 4 -26 10 -3 5 -15 6 -28 1 -12 -5 -29 -4 -38 2 -9 6 -25 7 -35 2
-25 -10 -77 -10 -93 -1 -27 17 -36 -16 -42 -157 l-6 -142 1 151 c1 139 0 150
-16 146 -11 -2 -18 1 -18 9 0 8 -3 24 -6 35 -4 15 2 29 18 43 19 18 19 21 4
15 -13 -5 -17 -3 -14 6 8 25 71 36 198 36 111 0 114 0 26 -3z m-1838 -63 c0
-9 -3 -7 -8 5 -5 11 -8 29 -8 40 0 16 2 15 8 -5 4 -14 8 -32 8 -40z m2028 46
c10 -8 16 -17 12 -21 -13 -13 -85 -25 -160 -25 -66 0 -79 3 -87 19 -16 28 3
31 118 20 110 -11 146 -8 91 9 -22 6 -27 11 -14 11 11 1 29 -5 40 -13z m-986
-66 c357 0 459 3 463 13 3 6 6 3 6 -9 1 -11 7 -26 14 -34 6 -8 3 -7 -9 3 -19
16 -56 17 -485 15 l-464 -3 -2 25 c-1 20 0 21 8 7 9 -16 46 -17 469 -17z
m-1033 -153 c-2 -23 -3 -1 -3 48 0 50 1 68 3 42 2 -26 2 -67 0 -90z m1563 98
c0 -8 -7 -15 -15 -15 -8 0 -15 7 -15 15 0 8 7 15 15 15 8 0 15 -7 15 -15z
m-40 -5 c0 -5 -47 -9 -110 -9 -65 0 -108 4 -105 10 8 12 215 12 215 -1z m97
-310 l0 -95 -7 95 c-4 52 -8 142 -7 200 l0 105 7 -105 c4 -58 7 -148 7 -200z
m-309 263 c-152 -2 -404 -2 -560 0 -156 1 -31 2 277 2 308 0 435 -1 283 -2z
m349 -110 c-2 -16 -4 -5 -4 22 0 28 2 40 4 28 2 -13 2 -35 0 -50z m-654 40
l-582 -3 -4 -83 -3 -82 -2 88 -2 87 588 -2 587 -3 -582 -2z m-383 -22 c0 -3
-43 -7 -95 -8 -59 -2 -95 1 -95 7 0 7 37 10 95 9 52 -1 95 -4 95 -8z m57 -4
c-5 -15 -47 -16 -47 -2 0 7 11 13 25 13 14 0 24 -5 22 -11z m-647 -39 c0 -5
-6 -8 -13 -8 -7 0 -14 12 -15 27 -2 26 -1 26 13 7 8 -10 15 -22 15 -26z m25
-39 c-5 -8 -14 -7 -52 7 -15 6 -14 8 7 14 26 7 54 -6 45 -21z m187 -5 c35 -9
67 -20 73 -25 5 -5 -78 -9 -206 -9 -142 0 -209 4 -199 10 8 5 47 10 85 11 39
0 86 7 105 14 47 18 67 18 142 -1z m1415 -36 c-3 -8 -6 -5 -6 6 -1 11 2 17 5
13 3 -3 4 -12 1 -19z m-1444 -15 c-62 -2 -164 -2 -225 0 -62 1 -12 3 112 3
124 0 174 -2 113 -3z m795 -20 c-548 -3 -587 -4 -591 -21 -4 -13 -5 -11 -6 6
l-1 22 593 -2 592 -3 -587 -2z m506 -90 c2 -10 12 -58 21 -108 9 -49 19 -101
21 -114 3 -14 7 -28 10 -32 3 -5 -353 -9 -791 -9 -635 0 -795 2 -795 12 0 7 7
44 15 83 8 38 15 79 15 90 0 11 5 37 11 58 l10 37 739 0 c695 0 739 -1 744
-17z m127 -239 c29 -36 266 -41 331 -8 27 14 28 14 28 -10 0 -14 -5 -28 -12
-32 -8 -5 -9 -2 -5 9 5 13 1 17 -14 17 -11 0 -18 -3 -16 -7 7 -12 -159 -15
-230 -5 -50 7 -63 6 -63 -5 0 -7 5 -13 12 -13 6 0 9 -2 6 -5 -3 -3 -17 -1 -32
4 l-26 11 2 122 c2 118 2 119 5 29 2 -52 8 -100 14 -107z m326 164 c-3 -8 -6
-5 -6 6 -1 11 2 17 5 13 3 -3 4 -12 1 -19z m-310 -20 c-3 -7 -5 -2 -5 12 0 14
2 19 5 13 2 -7 2 -19 0 -25z m-10 -100 c-3 -8 -6 -5 -6 6 -1 11 2 17 5 13 3
-3 4 -12 1 -19z m266 -115 c-7 -2 -19 -2 -25 0 -7 3 -2 5 12 5 14 0 19 -2 13
-5z m-65 -10 c-16 -2 -40 -2 -55 0 -16 2 -3 4 27 4 30 0 43 -2 28 -4z"/>
<path d="M375 681 c-13 -31 -34 -144 -29 -152 7 -13 1091 -12 1099 1 12 19
-17 89 -39 93 -20 4 -20 4 2 6 25 1 27 9 11 44 l-11 24 -513 0 c-465 1 -514
-1 -520 -16z m190 -1 c-3 -5 -13 -10 -21 -10 -8 0 -14 5 -14 10 0 6 9 10 21
10 11 0 17 -4 14 -10z m70 0 c-3 -5 -13 -10 -21 -10 -8 0 -14 5 -14 10 0 6 9
10 21 10 11 0 17 -4 14 -10z m75 0 c0 -5 -7 -10 -15 -10 -8 0 -15 5 -15 10 0
6 7 10 15 10 8 0 15 -4 15 -10z m80 2 c0 -4 -9 -8 -20 -9 -11 -1 -20 2 -20 8
0 5 9 9 20 9 11 0 20 -4 20 -8z m60 -8 c0 -2 -7 -4 -15 -4 -8 0 -15 4 -15 10
0 5 7 7 15 4 8 -4 15 -8 15 -10z m70 6 c0 -5 -7 -10 -15 -10 -8 0 -15 5 -15
10 0 6 7 10 15 10 8 0 15 -4 15 -10z m70 -6 c0 -2 -7 -4 -15 -4 -8 0 -15 4
-15 10 0 5 7 7 15 4 8 -4 15 -8 15 -10z m70 4 c0 -4 -9 -8 -20 -8 -11 0 -20 4
-20 9 0 6 9 9 20 8 11 -1 20 -5 20 -9z m130 2 c0 -5 -9 -10 -20 -10 -11 0 -20
5 -20 10 0 6 9 10 20 10 11 0 20 -4 20 -10z m55 0 c3 -5 -1 -10 -9 -10 -9 0
-16 5 -16 10 0 6 4 10 9 10 6 0 13 -4 16 -10z m75 6 c0 -2 -7 -6 -15 -10 -8
-3 -15 -1 -15 4 0 6 7 10 15 10 8 0 15 -2 15 -4z m80 -6 c0 -5 -9 -10 -20 -10
-11 0 -20 5 -20 10 0 6 9 10 20 10 11 0 20 -4 20 -10z m-923 -6 c-3 -3 -12 -4
-19 -1 -8 3 -5 6 6 6 11 1 17 -2 13 -5z m640 0 c-3 -3 -12 -4 -19 -1 -8 3 -5
6 6 6 11 1 17 -2 13 -5z m-677 -18 c0 -2 -15 -6 -34 -8 -19 -2 -32 0 -30 4 5
8 64 12 64 4z m53 -3 c-7 -2 -19 -2 -25 0 -7 3 -2 5 12 5 14 0 19 -2 13 -5z
m85 0 c-10 -2 -26 -2 -35 0 -10 3 -2 5 17 5 19 0 27 -2 18 -5z m75 0 c-7 -2
-19 -2 -25 0 -7 3 -2 5 12 5 14 0 19 -2 13 -5z m70 0 c-7 -2 -19 -2 -25 0 -7
3 -2 5 12 5 14 0 19 -2 13 -5z m70 0 c-7 -2 -19 -2 -25 0 -7 3 -2 5 12 5 14 0
19 -2 13 -5z m70 0 c-7 -2 -19 -2 -25 0 -7 3 -2 5 12 5 14 0 19 -2 13 -5z m70
0 c-7 -2 -21 -2 -30 0 -10 3 -4 5 12 5 17 0 24 -2 18 -5z m70 0 c-7 -2 -21 -2
-30 0 -10 3 -4 5 12 5 17 0 24 -2 18 -5z m60 0 c-7 -2 -19 -2 -25 0 -7 3 -2 5
12 5 14 0 19 -2 13 -5z m70 0 c-7 -2 -19 -2 -25 0 -7 3 -2 5 12 5 14 0 19 -2
13 -5z m60 0 c-7 -2 -19 -2 -25 0 -7 3 -2 5 12 5 14 0 19 -2 13 -5z m70 0 c-7
-2 -19 -2 -25 0 -7 3 -2 5 12 5 14 0 19 -2 13 -5z m70 0 c-7 -2 -21 -2 -30 0
-10 3 -4 5 12 5 17 0 24 -2 18 -5z m70 0 c-7 -2 -21 -2 -30 0 -10 3 -4 5 12 5
17 0 24 -2 18 -5z m-974 -39 c2 -2 -10 -4 -27 -4 -18 0 -32 5 -32 10 0 9 47 4
59 -6z m94 9 c-7 -2 -21 -2 -30 0 -10 3 -4 5 12 5 17 0 24 -2 18 -5z m75 0
c-10 -2 -26 -2 -35 0 -10 3 -2 5 17 5 19 0 27 -2 18 -5z m75 0 c-7 -2 -21 -2
-30 0 -10 3 -4 5 12 5 17 0 24 -2 18 -5z m70 0 c-7 -2 -21 -2 -30 0 -10 3 -4
5 12 5 17 0 24 -2 18 -5z m70 0 c-7 -2 -21 -2 -30 0 -10 3 -4 5 12 5 17 0 24
-2 18 -5z m60 0 c-7 -2 -19 -2 -25 0 -7 3 -2 5 12 5 14 0 19 -2 13 -5z m80 0
c-7 -2 -21 -2 -30 0 -10 3 -4 5 12 5 17 0 24 -2 18 -5z m60 0 c-7 -2 -19 -2
-25 0 -7 3 -2 5 12 5 14 0 19 -2 13 -5z m70 0 c-7 -2 -19 -2 -25 0 -7 3 -2 5
12 5 14 0 19 -2 13 -5z m70 0 c-7 -2 -19 -2 -25 0 -7 3 -2 5 12 5 14 0 19 -2
13 -5z m60 0 c-7 -2 -19 -2 -25 0 -7 3 -2 5 12 5 14 0 19 -2 13 -5z m80 0 c-7
-2 -21 -2 -30 0 -10 3 -4 5 12 5 17 0 24 -2 18 -5z m70 0 c-7 -2 -21 -2 -30 0
-10 3 -4 5 12 5 17 0 24 -2 18 -5z m-810 -30 c-7 -2 -19 -2 -25 0 -7 3 -2 5
12 5 14 0 19 -2 13 -5z m60 0 c-7 -2 -19 -2 -25 0 -7 3 -2 5 12 5 14 0 19 -2
13 -5z m150 0 c-7 -2 -21 -2 -30 0 -10 3 -4 5 12 5 17 0 24 -2 18 -5z m70 0
c-7 -2 -21 -2 -30 0 -10 3 -4 5 12 5 17 0 24 -2 18 -5z m70 0 c-7 -2 -21 -2
-30 0 -10 3 -4 5 12 5 17 0 24 -2 18 -5z m60 0 c-7 -2 -19 -2 -25 0 -7 3 -2 5
12 5 14 0 19 -2 13 -5z m70 0 c-7 -2 -19 -2 -25 0 -7 3 -2 5 12 5 14 0 19 -2
13 -5z m70 0 c-7 -2 -19 -2 -25 0 -7 3 -2 5 12 5 14 0 19 -2 13 -5z m70 0 c-7
-2 -19 -2 -25 0 -7 3 -2 5 12 5 14 0 19 -2 13 -5z m70 0 c-7 -2 -19 -2 -25 0
-7 3 -2 5 12 5 14 0 19 -2 13 -5z m70 0 c-7 -2 -19 -2 -25 0 -7 3 -2 5 12 5
14 0 19 -2 13 -5z m90 0 c-13 -2 -33 -2 -45 0 -13 2 -3 4 22 4 25 0 35 -2 23
-4z m-780 -30 c-7 -2 -19 -2 -25 0 -7 3 -2 5 12 5 14 0 19 -2 13 -5z m542 0
c-250 -7 -483 -7 -478 0 2 4 133 6 291 5 158 -1 242 -3 187 -5z"/>
<path d="M1504 685 c-3 -7 1 -46 8 -86 l13 -74 130 0 130 0 -2 35 c-4 52 -24
120 -34 114 -5 -3 -6 1 -3 9 4 13 -14 15 -116 15 -90 0 -123 -3 -126 -13z m56
-5 c0 -5 -9 -10 -20 -10 -11 0 -20 5 -20 10 0 6 9 10 20 10 11 0 20 -4 20 -10z
m60 0 c0 -5 -10 -10 -22 -9 -22 0 -22 1 -3 9 11 5 21 9 23 9 1 1 2 -3 2 -9z
m70 0 c0 -5 -9 -10 -20 -10 -11 0 -20 5 -20 10 0 6 9 10 20 10 11 0 20 -4 20
-10z m-127 -27 c-7 -2 -19 -2 -25 0 -7 3 -2 5 12 5 14 0 19 -2 13 -5z m60 0
c-7 -2 -19 -2 -25 0 -7 3 -2 5 12 5 14 0 19 -2 13 -5z m60 0 c-7 -2 -19 -2
-25 0 -7 3 -2 5 12 5 14 0 19 -2 13 -5z m60 0 c-7 -2 -19 -2 -25 0 -7 3 -2 5
12 5 14 0 19 -2 13 -5z m-180 -30 c-7 -2 -19 -2 -25 0 -7 3 -2 5 12 5 14 0 19
-2 13 -5z m60 0 c-7 -2 -19 -2 -25 0 -7 3 -2 5 12 5 14 0 19 -2 13 -5z m70 0
c-7 -2 -21 -2 -30 0 -10 3 -4 5 12 5 17 0 24 -2 18 -5z m60 0 c-7 -2 -19 -2
-25 0 -7 3 -2 5 12 5 14 0 19 -2 13 -5z m-180 -30 c-7 -2 -19 -2 -25 0 -7 3
-2 5 12 5 14 0 19 -2 13 -5z m60 0 c-7 -2 -19 -2 -25 0 -7 3 -2 5 12 5 14 0
19 -2 13 -5z m70 0 c-7 -2 -21 -2 -30 0 -10 3 -4 5 12 5 17 0 24 -2 18 -5z
m54 1 c-3 -3 -12 -4 -19 -1 -8 3 -5 6 6 6 11 1 17 -2 13 -5z"/>
<path d="M673 483 c213 -2 561 -2 775 0 213 1 38 2 -388 2 -426 0 -601 -1
-387 -2z"/>
</g>
</svg>
